<?xml version="1.0" encoding="UTF-8" standalone="no"?>
<!DOCTYPE svg PUBLIC "-//W3C//DTD SVG 1.1//EN"
 "http://www.w3.org/Graphics/SVG/1.1/DTD/svg11.dtd">
<!-- Generated by graphviz version 2.40.1 (20161225.0304)
 -->
<!-- Title: %3 Pages: 1 -->
<svg width="573pt" height="256pt"
 viewBox="0.00 0.00 573.00 256.00" xmlns="http://www.w3.org/2000/svg" xmlns:xlink="http://www.w3.org/1999/xlink">
<g id="graph0" class="graph" transform="scale(1 1) rotate(0) translate(4 252)">
<title>%3</title>
<polygon fill="#ffffff" stroke="transparent" points="-4,4 -4,-252 569,-252 569,4 -4,4"/>
<!-- 0 -->
<g id="node1" class="node">
<title>0</title>
</g>
<!-- 1 -->
<g id="node2" class="node">
<title>1</title>
<ellipse fill="none" stroke="#000000" cx="122" cy="-114" rx="27" ry="18"/>
<ellipse fill="none" stroke="#000000" cx="122" cy="-114" rx="31" ry="22"/>
<text text-anchor="middle" x="122" y="-109.8" font-family="Times,serif" font-size="14.00" fill="#000000">1</text>
</g>
<!-- 0&#45;&gt;1 -->
<g id="edge1" class="edge">
<title>0&#45;&gt;1</title>
<path fill="none" stroke="#000000" d="M54.2232,-114C62.4201,-114 71.6087,-114 80.5111,-114"/>
<polygon fill="#000000" stroke="#000000" points="80.7537,-117.5001 90.7536,-114 80.7536,-110.5001 80.7537,-117.5001"/>
</g>
<!-- 2 -->
<g id="node3" class="node">
<title>2</title>
<ellipse fill="none" stroke="#000000" cx="227" cy="-230" rx="27" ry="18"/>
<text text-anchor="middle" x="227" y="-225.8" font-family="Times,serif" font-size="14.00" fill="#000000">2</text>
</g>
<!-- 1&#45;&gt;2 -->
<g id="edge2" class="edge">
<title>1&#45;&gt;2</title>
<path fill="none" stroke="#000000" d="M136.7475,-133.513C151.1123,-152.0753 173.9487,-180.4377 196,-203 198.011,-205.0576 200.1574,-207.1367 202.3466,-209.1795"/>
<polygon fill="#000000" stroke="#000000" points="200.0446,-211.8165 209.8205,-215.9011 204.7255,-206.6117 200.0446,-211.8165"/>
<text text-anchor="middle" x="174.5" y="-184.8" font-family="Times,serif" font-size="14.00" fill="#000000">i</text>
</g>
<!-- 3 -->
<g id="node4" class="node">
<title>3</title>
<ellipse fill="none" stroke="#000000" cx="227" cy="-172" rx="27" ry="18"/>
<ellipse fill="none" stroke="#000000" cx="227" cy="-172" rx="31" ry="22"/>
<text text-anchor="middle" x="227" y="-167.8" font-family="Times,serif" font-size="14.00" fill="#000000">3</text>
</g>
<!-- 1&#45;&gt;3 -->
<g id="edge3" class="edge">
<title>1&#45;&gt;3</title>
<path fill="none" stroke="#000000" d="M146.6178,-127.5984C160.5725,-135.3067 178.2297,-145.0602 193.4383,-153.4611"/>
<polygon fill="#000000" stroke="#000000" points="192.0907,-156.7152 202.5364,-158.4868 195.4754,-150.5879 192.0907,-156.7152"/>
<text text-anchor="middle" x="174.5" y="-146.8" font-family="Times,serif" font-size="14.00" fill="#000000">a</text>
</g>
<!-- 4 -->
<g id="node5" class="node">
<title>4</title>
<ellipse fill="none" stroke="#000000" cx="227" cy="-114" rx="27" ry="18"/>
<text text-anchor="middle" x="227" y="-109.8" font-family="Times,serif" font-size="14.00" fill="#000000">4</text>
</g>
<!-- 1&#45;&gt;4 -->
<g id="edge4" class="edge">
<title>1&#45;&gt;4</title>
<path fill="none" stroke="#000000" d="M153.2192,-114C164.721,-114 177.8632,-114 189.8383,-114"/>
<polygon fill="#000000" stroke="#000000" points="189.9908,-117.5001 199.9908,-114 189.9908,-110.5001 189.9908,-117.5001"/>
<text text-anchor="middle" x="174.5" y="-116.8" font-family="Times,serif" font-size="14.00" fill="#000000">b</text>
</g>
<!-- 5 -->
<g id="node6" class="node">
<title>5</title>
<ellipse fill="none" stroke="#000000" cx="227" cy="-22" rx="27" ry="18"/>
<text text-anchor="middle" x="227" y="-17.8" font-family="Times,serif" font-size="14.00" fill="#000000">5</text>
</g>
<!-- 1&#45;&gt;5 -->
<g id="edge5" class="edge">
<title>1&#45;&gt;5</title>
<path fill="none" stroke="#000000" d="M131.1,-92.9552C139.2872,-76.3538 152.8245,-53.7729 171,-40 176.9315,-35.5053 184.0239,-32.1109 191.1357,-29.5547"/>
<polygon fill="#000000" stroke="#000000" points="192.2317,-32.8793 200.7385,-26.5638 190.15,-26.1959 192.2317,-32.8793"/>
<text text-anchor="middle" x="174.5" y="-42.8" font-family="Times,serif" font-size="14.00" fill="#000000">d</text>
</g>
<!-- 6 -->
<g id="node7" class="node">
<title>6</title>
<ellipse fill="none" stroke="#000000" cx="437" cy="-186" rx="27" ry="18"/>
<text text-anchor="middle" x="437" y="-181.8" font-family="Times,serif" font-size="14.00" fill="#000000">6</text>
</g>
<!-- 1&#45;&gt;6 -->
<g id="edge6" class="edge">
<title>1&#45;&gt;6</title>
<path fill="none" stroke="#000000" d="M148.7235,-102.5103C195.1525,-84.4164 292.4913,-54.8685 363,-91 391.4899,-105.5994 412.3731,-136.7225 424.5564,-159.3788"/>
<polygon fill="#000000" stroke="#000000" points="421.5585,-161.2027 429.242,-168.4975 427.7846,-158.0033 421.5585,-161.2027"/>
<text text-anchor="middle" x="279.5" y="-76.8" font-family="Times,serif" font-size="14.00" fill="#000000">g</text>
</g>
<!-- 7 -->
<g id="node8" class="node">
<title>7</title>
<ellipse fill="none" stroke="#000000" cx="332" cy="-186" rx="27" ry="18"/>
<ellipse fill="none" stroke="#000000" cx="332" cy="-186" rx="31" ry="22"/>
<text text-anchor="middle" x="332" y="-181.8" font-family="Times,serif" font-size="14.00" fill="#000000">7</text>
</g>
<!-- 2&#45;&gt;7 -->
<g id="edge7" class="edge">
<title>2&#45;&gt;7</title>
<path fill="none" stroke="#000000" d="M243.7589,-215.4579C248.3815,-211.432 253.3919,-207.0546 258,-203 266.0358,-195.9294 266.0294,-190.893 276,-187 280.8021,-185.125 286.0169,-183.9838 291.2675,-183.3527"/>
<polygon fill="#000000" stroke="#000000" points="291.5541,-186.8416 301.3098,-182.7092 291.1064,-179.8559 291.5541,-186.8416"/>
<text text-anchor="middle" x="279.5" y="-189.8" font-family="Times,serif" font-size="14.00" fill="#000000">j</text>
</g>
<!-- 8 -->
<g id="node9" class="node">
<title>8</title>
<ellipse fill="none" stroke="#000000" cx="332" cy="-122" rx="27" ry="18"/>
<ellipse fill="none" stroke="#000000" cx="332" cy="-122" rx="31" ry="22"/>
<text text-anchor="middle" x="332" y="-117.8" font-family="Times,serif" font-size="14.00" fill="#000000">8</text>
</g>
<!-- 4&#45;&gt;8 -->
<g id="edge8" class="edge">
<title>4&#45;&gt;8</title>
<path fill="none" stroke="#000000" d="M251.4269,-121.8124C259.1975,-123.9366 267.8836,-125.9416 276,-127 281.0724,-127.6614 286.4148,-127.8425 291.7041,-127.7122"/>
<polygon fill="#000000" stroke="#000000" points="291.9483,-131.204 301.7253,-127.1222 291.5369,-124.2161 291.9483,-131.204"/>
<text text-anchor="middle" x="279.5" y="-129.8" font-family="Times,serif" font-size="14.00" fill="#000000">c</text>
</g>
<!-- 9 -->
<g id="node10" class="node">
<title>9</title>
<ellipse fill="none" stroke="#000000" cx="332" cy="-22" rx="27" ry="18"/>
<text text-anchor="middle" x="332" y="-17.8" font-family="Times,serif" font-size="14.00" fill="#000000">9</text>
</g>
<!-- 5&#45;&gt;9 -->
<g id="edge9" class="edge">
<title>5&#45;&gt;9</title>
<path fill="none" stroke="#000000" d="M254.0401,-22C266.3143,-22 281.0382,-22 294.3683,-22"/>
<polygon fill="#000000" stroke="#000000" points="294.6866,-25.5001 304.6866,-22 294.6866,-18.5001 294.6866,-25.5001"/>
<text text-anchor="middle" x="279.5" y="-24.8" font-family="Times,serif" font-size="14.00" fill="#000000">e</text>
</g>
<!-- 10 -->
<g id="node11" class="node">
<title>10</title>
<ellipse fill="none" stroke="#000000" cx="538" cy="-223" rx="27" ry="18"/>
<text text-anchor="middle" x="538" y="-218.8" font-family="Times,serif" font-size="14.00" fill="#000000">10</text>
</g>
<!-- 6&#45;&gt;10 -->
<g id="edge10" class="edge">
<title>6&#45;&gt;10</title>
<path fill="none" stroke="#000000" d="M460.68,-194.6749C473.7551,-199.4647 490.2093,-205.4925 504.5743,-210.755"/>
<polygon fill="#000000" stroke="#000000" points="503.5247,-214.0978 514.1184,-214.2513 505.9326,-207.525 503.5247,-214.0978"/>
<text text-anchor="middle" x="489.5" y="-207.8" font-family="Times,serif" font-size="14.00" fill="#000000">h</text>
</g>
<!-- 7&#45;&gt;2 -->
<g id="edge11" class="edge">
<title>7&#45;&gt;2</title>
<path fill="none" stroke="#000000" d="M305.3036,-197.1871C291.308,-203.0519 274.0562,-210.2812 259.311,-216.4601"/>
<polygon fill="#000000" stroke="#000000" points="257.9129,-213.2511 250.0427,-220.344 260.6184,-219.7071 257.9129,-213.2511"/>
<text text-anchor="middle" x="279.5" y="-211.8" font-family="Times,serif" font-size="14.00" fill="#000000">i</text>
</g>
<!-- 7&#45;&gt;6 -->
<g id="edge12" class="edge">
<title>7&#45;&gt;6</title>
<path fill="none" stroke="#000000" d="M363.2192,-186C374.721,-186 387.8632,-186 399.8383,-186"/>
<polygon fill="#000000" stroke="#000000" points="399.9908,-189.5001 409.9908,-186 399.9908,-182.5001 399.9908,-189.5001"/>
<text text-anchor="middle" x="384.5" y="-188.8" font-family="Times,serif" font-size="14.00" fill="#000000">g</text>
</g>
<!-- 8&#45;&gt;4 -->
<g id="edge13" class="edge">
<title>8&#45;&gt;4</title>
<path fill="none" stroke="#000000" d="M303.4887,-113.1061C296.8306,-111.4015 289.7201,-109.8763 283,-109 276.6482,-108.1717 269.8729,-108.0967 263.3087,-108.4431"/>
<polygon fill="#000000" stroke="#000000" points="262.9306,-104.9625 253.2585,-109.2868 263.5162,-111.9379 262.9306,-104.9625"/>
<text text-anchor="middle" x="279.5" y="-111.8" font-family="Times,serif" font-size="14.00" fill="#000000">b</text>
</g>
<!-- 11 -->
<g id="node12" class="node">
<title>11</title>
<ellipse fill="none" stroke="#000000" cx="437" cy="-22" rx="27" ry="18"/>
<ellipse fill="none" stroke="#000000" cx="437" cy="-22" rx="31" ry="22"/>
<text text-anchor="middle" x="437" y="-17.8" font-family="Times,serif" font-size="14.00" fill="#000000">11</text>
</g>
<!-- 9&#45;&gt;11 -->
<g id="edge14" class="edge">
<title>9&#45;&gt;11</title>
<path fill="none" stroke="#000000" d="M359.0401,-22C370.2433,-22 383.4874,-22 395.8498,-22"/>
<polygon fill="#000000" stroke="#000000" points="395.9626,-25.5001 405.9626,-22 395.9626,-18.5001 395.9626,-25.5001"/>
<text text-anchor="middle" x="384.5" y="-24.8" font-family="Times,serif" font-size="14.00" fill="#000000">f</text>
</g>
<!-- 10&#45;&gt;2 -->
<g id="edge15" class="edge">
<title>10&#45;&gt;2</title>
<path fill="none" stroke="#000000" d="M510.7859,-223.6125C455.0491,-224.8671 327.8311,-227.7305 264.3977,-229.1583"/>
<polygon fill="#000000" stroke="#000000" points="263.9738,-225.6668 254.0552,-229.391 264.1314,-232.665 263.9738,-225.6668"/>
<text text-anchor="middle" x="384.5" y="-228.8" font-family="Times,serif" font-size="14.00" fill="#000000">i</text>
</g>
<!-- 10&#45;&gt;6 -->
<g id="edge16" class="edge">
<title>10&#45;&gt;6</title>
<path fill="none" stroke="#000000" d="M524.2538,-207.3921C516.0856,-199.3292 504.997,-190.2988 493,-186 486.9337,-183.8263 480.2547,-182.7782 473.6869,-182.4185"/>
<polygon fill="#000000" stroke="#000000" points="473.5828,-178.9179 463.5617,-182.3572 473.5403,-185.9178 473.5828,-178.9179"/>
<text text-anchor="middle" x="489.5" y="-188.8" font-family="Times,serif" font-size="14.00" fill="#000000">g</text>
</g>
</g>
</svg>
