<?xml version="1.0" encoding="UTF-8" standalone="no"?>
<!DOCTYPE svg PUBLIC "-//W3C//DTD SVG 1.1//EN"
 "http://www.w3.org/Graphics/SVG/1.1/DTD/svg11.dtd">
<!-- Generated by graphviz version 2.40.1 (20161225.0304)
 -->
<!-- Title: %3 Pages: 1 -->
<svg width="1703pt" height="414pt"
 viewBox="0.00 0.00 1703.19 414.00" xmlns="http://www.w3.org/2000/svg" xmlns:xlink="http://www.w3.org/1999/xlink">
<g id="graph0" class="graph" transform="scale(1 1) rotate(0) translate(4 410)">
<title>%3</title>
<polygon fill="#ffffff" stroke="transparent" points="-4,4 -4,-410 1699.1865,-410 1699.1865,4 -4,4"/>
<!-- 0 -->
<g id="node1" class="node">
<title>0</title>
</g>
<!-- 1 -->
<g id="node2" class="node">
<title>1</title>
<ellipse fill="none" stroke="#000000" cx="118" cy="-194" rx="27" ry="18"/>
<text text-anchor="middle" x="118" y="-189.8" font-family="Times,serif" font-size="14.00" fill="#000000">1</text>
</g>
<!-- 0&#45;&gt;1 -->
<g id="edge1" class="edge">
<title>0&#45;&gt;1</title>
<path fill="none" stroke="#000000" d="M54.303,-194C62.5813,-194 71.8217,-194 80.6405,-194"/>
<polygon fill="#000000" stroke="#000000" points="80.7163,-197.5001 90.7163,-194 80.7162,-190.5001 80.7163,-197.5001"/>
</g>
<!-- 2 -->
<g id="node3" class="node">
<title>2</title>
<ellipse fill="none" stroke="#000000" cx="215.3828" cy="-222" rx="27" ry="18"/>
<text text-anchor="middle" x="215.3828" y="-217.8" font-family="Times,serif" font-size="14.00" fill="#000000">2</text>
</g>
<!-- 1&#45;&gt;2 -->
<g id="edge2" class="edge">
<title>1&#45;&gt;2</title>
<path fill="none" stroke="#000000" d="M142.8258,-201.138C154.2977,-204.4365 168.1179,-208.4102 180.6053,-212.0006"/>
<polygon fill="#000000" stroke="#000000" points="179.686,-215.378 190.2638,-214.7776 181.6203,-208.6506 179.686,-215.378"/>
<text text-anchor="middle" x="166.6914" y="-213.2883" font-family="Times,serif" font-size="14.00" fill="#000000">ϵ</text>
</g>
<!-- 3 -->
<g id="node4" class="node">
<title>3</title>
<ellipse fill="none" stroke="#000000" cx="215.3828" cy="-168" rx="27" ry="18"/>
<text text-anchor="middle" x="215.3828" y="-163.8" font-family="Times,serif" font-size="14.00" fill="#000000">3</text>
</g>
<!-- 1&#45;&gt;3 -->
<g id="edge3" class="edge">
<title>1&#45;&gt;3</title>
<path fill="none" stroke="#000000" d="M142.1622,-185.7541C148.8717,-183.5921 156.186,-181.3529 163,-179.5117 168.3372,-178.0696 174.0164,-176.6772 179.592,-175.389"/>
<polygon fill="#000000" stroke="#000000" points="180.4228,-178.7897 189.4198,-173.1946 178.8973,-171.958 180.4228,-178.7897"/>
<text text-anchor="middle" x="166.6914" y="-184.2883" font-family="Times,serif" font-size="14.00" fill="#000000">ϵ</text>
</g>
<!-- 4 -->
<g id="node5" class="node">
<title>4</title>
<ellipse fill="none" stroke="#000000" cx="312.7656" cy="-326" rx="27" ry="18"/>
<text text-anchor="middle" x="312.7656" y="-321.8" font-family="Times,serif" font-size="14.00" fill="#000000">4</text>
</g>
<!-- 2&#45;&gt;4 -->
<g id="edge4" class="edge">
<title>2&#45;&gt;4</title>
<path fill="none" stroke="#000000" d="M229.752,-237.3456C246.0062,-254.7042 272.6427,-283.1507 291.3498,-303.1289"/>
<polygon fill="#000000" stroke="#000000" points="288.9476,-305.6843 298.3375,-310.5915 294.0573,-300.8997 288.9476,-305.6843"/>
<text text-anchor="middle" x="264.0742" y="-282.2883" font-family="Times,serif" font-size="14.00" fill="#000000">ϵ</text>
</g>
<!-- 5 -->
<g id="node6" class="node">
<title>5</title>
<ellipse fill="none" stroke="#000000" cx="384.7656" cy="-216" rx="27" ry="18"/>
<text text-anchor="middle" x="384.7656" y="-211.8" font-family="Times,serif" font-size="14.00" fill="#000000">5</text>
</g>
<!-- 2&#45;&gt;5 -->
<g id="edge5" class="edge">
<title>2&#45;&gt;5</title>
<path fill="none" stroke="#000000" d="M242.5971,-221.036C270.9955,-220.03 315.719,-218.4458 347.4126,-217.3231"/>
<polygon fill="#000000" stroke="#000000" points="347.7491,-220.8135 357.6189,-216.9616 347.5012,-213.8179 347.7491,-220.8135"/>
<text text-anchor="middle" x="264.0742" y="-225.2883" font-family="Times,serif" font-size="14.00" fill="#000000">ϵ</text>
</g>
<!-- 6 -->
<g id="node7" class="node">
<title>6</title>
<ellipse fill="none" stroke="#000000" cx="1562.8037" cy="-168" rx="27" ry="18"/>
<text text-anchor="middle" x="1562.8037" y="-163.8" font-family="Times,serif" font-size="14.00" fill="#000000">6</text>
</g>
<!-- 3&#45;&gt;6 -->
<g id="edge6" class="edge">
<title>3&#45;&gt;6</title>
<path fill="none" stroke="#000000" d="M242.6675,-168C262.1907,-168 289.0962,-168 312.7656,-168 312.7656,-168 312.7656,-168 1465.4209,-168 1485.2071,-168 1507.2546,-168 1525.3607,-168"/>
<polygon fill="#000000" stroke="#000000" points="1525.5191,-171.5001 1535.5191,-168 1525.519,-164.5001 1525.5191,-171.5001"/>
<text text-anchor="middle" x="960.7656" y="-173.2883" font-family="Times,serif" font-size="14.00" fill="#000000">ϵ</text>
</g>
<!-- 7 -->
<g id="node8" class="node">
<title>7</title>
<ellipse fill="none" stroke="#000000" cx="312.7656" cy="-103" rx="27" ry="18"/>
<text text-anchor="middle" x="312.7656" y="-98.8" font-family="Times,serif" font-size="14.00" fill="#000000">7</text>
</g>
<!-- 3&#45;&gt;7 -->
<g id="edge7" class="edge">
<title>3&#45;&gt;7</title>
<path fill="none" stroke="#000000" d="M234.6163,-154.8892C242.5754,-149.4846 251.9086,-143.1737 260.3828,-137.5117 268.278,-132.2367 276.8713,-126.5517 284.7715,-121.3478"/>
<polygon fill="#000000" stroke="#000000" points="286.8904,-124.1434 293.3224,-115.7244 283.044,-118.2948 286.8904,-124.1434"/>
<text text-anchor="middle" x="264.0742" y="-143.2883" font-family="Times,serif" font-size="14.00" fill="#000000">ϵ</text>
</g>
<!-- 8 -->
<g id="node9" class="node">
<title>8</title>
<ellipse fill="none" stroke="#000000" cx="456.7656" cy="-384" rx="27" ry="18"/>
<text text-anchor="middle" x="456.7656" y="-379.8" font-family="Times,serif" font-size="14.00" fill="#000000">8</text>
</g>
<!-- 4&#45;&gt;8 -->
<g id="edge8" class="edge">
<title>4&#45;&gt;8</title>
<path fill="none" stroke="#000000" d="M335.0987,-336.199C342.3003,-339.4144 350.3399,-342.9271 357.7656,-346 379.4947,-354.9919 404.1872,-364.4711 423.4761,-371.7128"/>
<polygon fill="#000000" stroke="#000000" points="422.4335,-375.0595 433.026,-375.2813 424.8838,-368.5023 422.4335,-375.0595"/>
<text text-anchor="middle" x="384.7656" y="-372.2883" font-family="Times,serif" font-size="14.00" fill="#000000">ϵ</text>
</g>
<!-- 9 -->
<g id="node10" class="node">
<title>9</title>
<ellipse fill="none" stroke="#000000" cx="456.7656" cy="-326" rx="27" ry="18"/>
<text text-anchor="middle" x="456.7656" y="-321.8" font-family="Times,serif" font-size="14.00" fill="#000000">9</text>
</g>
<!-- 4&#45;&gt;9 -->
<g id="edge9" class="edge">
<title>4&#45;&gt;9</title>
<path fill="none" stroke="#000000" d="M339.8509,-326C362.2352,-326 394.2627,-326 419.1381,-326"/>
<polygon fill="#000000" stroke="#000000" points="419.3122,-329.5001 429.3122,-326 419.3121,-322.5001 419.3122,-329.5001"/>
<text text-anchor="middle" x="384.7656" y="-331.2883" font-family="Times,serif" font-size="14.00" fill="#000000">ϵ</text>
</g>
<!-- 10 -->
<g id="node11" class="node">
<title>10</title>
<ellipse fill="none" stroke="#000000" cx="528.7656" cy="-216" rx="27" ry="18"/>
<text text-anchor="middle" x="528.7656" y="-211.8" font-family="Times,serif" font-size="14.00" fill="#000000">10</text>
</g>
<!-- 5&#45;&gt;10 -->
<g id="edge10" class="edge">
<title>5&#45;&gt;10</title>
<path fill="none" stroke="#000000" d="M411.8509,-216C434.2352,-216 466.2627,-216 491.1381,-216"/>
<polygon fill="#000000" stroke="#000000" points="491.3122,-219.5001 501.3122,-216 491.3121,-212.5001 491.3122,-219.5001"/>
<text text-anchor="middle" x="456.7656" y="-218.8" font-family="Times,serif" font-size="14.00" fill="#000000">d</text>
</g>
<!-- 11 -->
<g id="node12" class="node">
<title>11</title>
<ellipse fill="none" stroke="#000000" cx="1664.1865" cy="-191" rx="27" ry="18"/>
<ellipse fill="none" stroke="#000000" cx="1664.1865" cy="-191" rx="31" ry="22"/>
<text text-anchor="middle" x="1664.1865" y="-186.8" font-family="Times,serif" font-size="14.00" fill="#000000">11</text>
</g>
<!-- 6&#45;&gt;11 -->
<g id="edge11" class="edge">
<title>6&#45;&gt;11</title>
<path fill="none" stroke="#000000" d="M1588.3869,-173.8039C1599.3856,-176.2991 1612.4941,-179.2729 1624.6922,-182.0402"/>
<polygon fill="#000000" stroke="#000000" points="1624.1315,-185.5019 1634.6581,-184.3011 1625.6803,-178.6753 1624.1315,-185.5019"/>
<text text-anchor="middle" x="1611.4951" y="-184.2883" font-family="Times,serif" font-size="14.00" fill="#000000">ϵ</text>
</g>
<!-- 12 -->
<g id="node13" class="node">
<title>12</title>
<ellipse fill="none" stroke="#000000" cx="1032.7656" cy="-111" rx="27" ry="18"/>
<text text-anchor="middle" x="1032.7656" y="-106.8" font-family="Times,serif" font-size="14.00" fill="#000000">12</text>
</g>
<!-- 7&#45;&gt;12 -->
<g id="edge12" class="edge">
<title>7&#45;&gt;12</title>
<path fill="none" stroke="#000000" d="M337.3644,-110.7834C343.945,-112.6792 351.0861,-114.5703 357.7656,-116 401.2192,-125.3008 412.3278,-130 456.7656,-130 456.7656,-130 456.7656,-130 888.7656,-130 925.8223,-130 967.7857,-123.7392 996.8118,-118.4054"/>
<polygon fill="#000000" stroke="#000000" points="997.714,-121.7968 1006.8872,-116.4956 996.4103,-114.9193 997.714,-121.7968"/>
<text text-anchor="middle" x="672.7656" y="-135.2883" font-family="Times,serif" font-size="14.00" fill="#000000">ϵ</text>
</g>
<!-- 13 -->
<g id="node14" class="node">
<title>13</title>
<ellipse fill="none" stroke="#000000" cx="456.7656" cy="-84" rx="27" ry="18"/>
<text text-anchor="middle" x="456.7656" y="-79.8" font-family="Times,serif" font-size="14.00" fill="#000000">13</text>
</g>
<!-- 7&#45;&gt;13 -->
<g id="edge13" class="edge">
<title>7&#45;&gt;13</title>
<path fill="none" stroke="#000000" d="M339.5134,-99.4708C362.145,-96.4847 394.8079,-92.175 419.9148,-88.8623"/>
<polygon fill="#000000" stroke="#000000" points="420.7048,-92.2884 430.1611,-87.5103 419.7891,-85.3486 420.7048,-92.2884"/>
<text text-anchor="middle" x="384.7656" y="-102.2883" font-family="Times,serif" font-size="14.00" fill="#000000">ϵ</text>
</g>
<!-- 14 -->
<g id="node15" class="node">
<title>14</title>
<ellipse fill="none" stroke="#000000" cx="672.7656" cy="-388" rx="27" ry="18"/>
<text text-anchor="middle" x="672.7656" y="-383.8" font-family="Times,serif" font-size="14.00" fill="#000000">14</text>
</g>
<!-- 8&#45;&gt;14 -->
<g id="edge14" class="edge">
<title>8&#45;&gt;14</title>
<path fill="none" stroke="#000000" d="M484.1222,-384.5066C522.5059,-385.2174 592.4639,-386.5129 635.5534,-387.3109"/>
<polygon fill="#000000" stroke="#000000" points="635.5681,-390.8117 645.6312,-387.4975 635.6978,-383.8129 635.5681,-390.8117"/>
<text text-anchor="middle" x="528.7656" y="-387.8" font-family="Times,serif" font-size="14.00" fill="#000000">a</text>
</g>
<!-- 15 -->
<g id="node16" class="node">
<title>15</title>
<ellipse fill="none" stroke="#000000" cx="1176.7656" cy="-331" rx="27" ry="18"/>
<text text-anchor="middle" x="1176.7656" y="-326.8" font-family="Times,serif" font-size="14.00" fill="#000000">15</text>
</g>
<!-- 9&#45;&gt;15 -->
<g id="edge15" class="edge">
<title>9&#45;&gt;15</title>
<path fill="none" stroke="#000000" d="M482.0451,-332.8132C510.6356,-339.9087 558.6932,-350 600.7656,-350 600.7656,-350 600.7656,-350 1032.7656,-350 1069.8223,-350 1111.7857,-343.7392 1140.8118,-338.4054"/>
<polygon fill="#000000" stroke="#000000" points="1141.714,-341.7968 1150.8872,-336.4956 1140.4103,-334.9193 1141.714,-341.7968"/>
<text text-anchor="middle" x="816.7656" y="-355.2883" font-family="Times,serif" font-size="14.00" fill="#000000">ϵ</text>
</g>
<!-- 16 -->
<g id="node17" class="node">
<title>16</title>
<ellipse fill="none" stroke="#000000" cx="600.7656" cy="-304" rx="27" ry="18"/>
<text text-anchor="middle" x="600.7656" y="-299.8" font-family="Times,serif" font-size="14.00" fill="#000000">16</text>
</g>
<!-- 9&#45;&gt;16 -->
<g id="edge16" class="edge">
<title>9&#45;&gt;16</title>
<path fill="none" stroke="#000000" d="M483.1774,-321.9649C505.8707,-318.4978 538.8281,-313.4627 564.0813,-309.6045"/>
<polygon fill="#000000" stroke="#000000" points="564.6769,-313.0543 574.0336,-308.0841 563.6197,-306.1345 564.6769,-313.0543"/>
<text text-anchor="middle" x="528.7656" y="-323.2883" font-family="Times,serif" font-size="14.00" fill="#000000">ϵ</text>
</g>
<!-- 17 -->
<g id="node18" class="node">
<title>17</title>
<ellipse fill="none" stroke="#000000" cx="672.7656" cy="-215" rx="27" ry="18"/>
<text text-anchor="middle" x="672.7656" y="-210.8" font-family="Times,serif" font-size="14.00" fill="#000000">17</text>
</g>
<!-- 10&#45;&gt;17 -->
<g id="edge17" class="edge">
<title>10&#45;&gt;17</title>
<path fill="none" stroke="#000000" d="M555.8509,-215.8119C578.2352,-215.6565 610.2627,-215.434 635.1381,-215.2613"/>
<polygon fill="#000000" stroke="#000000" points="635.3368,-218.7601 645.3122,-215.1906 635.2881,-211.7603 635.3368,-218.7601"/>
<text text-anchor="middle" x="600.7656" y="-220.2883" font-family="Times,serif" font-size="14.00" fill="#000000">ϵ</text>
</g>
<!-- 18 -->
<g id="node19" class="node">
<title>18</title>
<ellipse fill="none" stroke="#000000" cx="1176.7656" cy="-111" rx="27" ry="18"/>
<text text-anchor="middle" x="1176.7656" y="-106.8" font-family="Times,serif" font-size="14.00" fill="#000000">18</text>
</g>
<!-- 12&#45;&gt;18 -->
<g id="edge18" class="edge">
<title>12&#45;&gt;18</title>
<path fill="none" stroke="#000000" d="M1059.8509,-111C1082.2352,-111 1114.2627,-111 1139.1381,-111"/>
<polygon fill="#000000" stroke="#000000" points="1139.3122,-114.5001 1149.3122,-111 1139.3121,-107.5001 1139.3122,-114.5001"/>
<text text-anchor="middle" x="1104.7656" y="-116.2883" font-family="Times,serif" font-size="14.00" fill="#000000">ϵ</text>
</g>
<!-- 19 -->
<g id="node20" class="node">
<title>19</title>
<ellipse fill="none" stroke="#000000" cx="600.7656" cy="-84" rx="27" ry="18"/>
<text text-anchor="middle" x="600.7656" y="-79.8" font-family="Times,serif" font-size="14.00" fill="#000000">19</text>
</g>
<!-- 13&#45;&gt;19 -->
<g id="edge19" class="edge">
<title>13&#45;&gt;19</title>
<path fill="none" stroke="#000000" d="M483.8509,-84C506.2352,-84 538.2627,-84 563.1381,-84"/>
<polygon fill="#000000" stroke="#000000" points="563.3122,-87.5001 573.3122,-84 563.3121,-80.5001 563.3122,-87.5001"/>
<text text-anchor="middle" x="528.7656" y="-86.8" font-family="Times,serif" font-size="14.00" fill="#000000">g</text>
</g>
<!-- 20 -->
<g id="node21" class="node">
<title>20</title>
<ellipse fill="none" stroke="#000000" cx="1274.1484" cy="-331" rx="27" ry="18"/>
<text text-anchor="middle" x="1274.1484" y="-326.8" font-family="Times,serif" font-size="14.00" fill="#000000">20</text>
</g>
<!-- 14&#45;&gt;20 -->
<g id="edge20" class="edge">
<title>14&#45;&gt;20</title>
<path fill="none" stroke="#000000" d="M699.8366,-388C728.7791,-388 776.0156,-388 816.7656,-388 816.7656,-388 816.7656,-388 1176.7656,-388 1205.6049,-388 1233.4794,-369.1506 1251.9617,-353.1307"/>
<polygon fill="#000000" stroke="#000000" points="1254.4656,-355.585 1259.5226,-346.275 1249.7635,-350.3994 1254.4656,-355.585"/>
<text text-anchor="middle" x="960.7656" y="-393.2883" font-family="Times,serif" font-size="14.00" fill="#000000">ϵ</text>
</g>
<!-- 15&#45;&gt;20 -->
<g id="edge21" class="edge">
<title>15&#45;&gt;20</title>
<path fill="none" stroke="#000000" d="M1203.8922,-331C1214.0426,-331 1225.7599,-331 1236.6805,-331"/>
<polygon fill="#000000" stroke="#000000" points="1236.8297,-334.5001 1246.8296,-331 1236.8296,-327.5001 1236.8297,-334.5001"/>
<text text-anchor="middle" x="1225.457" y="-336.2883" font-family="Times,serif" font-size="14.00" fill="#000000">ϵ</text>
</g>
<!-- 21 -->
<g id="node22" class="node">
<title>21</title>
<ellipse fill="none" stroke="#000000" cx="744.7656" cy="-304" rx="27" ry="18"/>
<text text-anchor="middle" x="744.7656" y="-299.8" font-family="Times,serif" font-size="14.00" fill="#000000">21</text>
</g>
<!-- 16&#45;&gt;21 -->
<g id="edge22" class="edge">
<title>16&#45;&gt;21</title>
<path fill="none" stroke="#000000" d="M627.8509,-304C650.2352,-304 682.2627,-304 707.1381,-304"/>
<polygon fill="#000000" stroke="#000000" points="707.3122,-307.5001 717.3122,-304 707.3121,-300.5001 707.3122,-307.5001"/>
<text text-anchor="middle" x="672.7656" y="-306.8" font-family="Times,serif" font-size="14.00" fill="#000000">b</text>
</g>
<!-- 22 -->
<g id="node23" class="node">
<title>22</title>
<ellipse fill="none" stroke="#000000" cx="816.7656" cy="-215" rx="27" ry="18"/>
<text text-anchor="middle" x="816.7656" y="-210.8" font-family="Times,serif" font-size="14.00" fill="#000000">22</text>
</g>
<!-- 17&#45;&gt;22 -->
<g id="edge23" class="edge">
<title>17&#45;&gt;22</title>
<path fill="none" stroke="#000000" d="M699.8509,-215C722.2352,-215 754.2627,-215 779.1381,-215"/>
<polygon fill="#000000" stroke="#000000" points="779.3122,-218.5001 789.3122,-215 779.3121,-211.5001 779.3122,-218.5001"/>
<text text-anchor="middle" x="744.7656" y="-217.8" font-family="Times,serif" font-size="14.00" fill="#000000">e</text>
</g>
<!-- 23 -->
<g id="node24" class="node">
<title>23</title>
<ellipse fill="none" stroke="#000000" cx="1274.1484" cy="-111" rx="27" ry="18"/>
<text text-anchor="middle" x="1274.1484" y="-106.8" font-family="Times,serif" font-size="14.00" fill="#000000">23</text>
</g>
<!-- 18&#45;&gt;23 -->
<g id="edge24" class="edge">
<title>18&#45;&gt;23</title>
<path fill="none" stroke="#000000" d="M1203.8922,-111C1214.0426,-111 1225.7599,-111 1236.6805,-111"/>
<polygon fill="#000000" stroke="#000000" points="1236.8297,-114.5001 1246.8296,-111 1236.8296,-107.5001 1236.8297,-114.5001"/>
<text text-anchor="middle" x="1225.457" y="-113.8" font-family="Times,serif" font-size="14.00" fill="#000000">i</text>
</g>
<!-- 24 -->
<g id="node25" class="node">
<title>24</title>
<ellipse fill="none" stroke="#000000" cx="744.7656" cy="-84" rx="27" ry="18"/>
<text text-anchor="middle" x="744.7656" y="-79.8" font-family="Times,serif" font-size="14.00" fill="#000000">24</text>
</g>
<!-- 19&#45;&gt;24 -->
<g id="edge25" class="edge">
<title>19&#45;&gt;24</title>
<path fill="none" stroke="#000000" d="M627.8509,-84C650.2352,-84 682.2627,-84 707.1381,-84"/>
<polygon fill="#000000" stroke="#000000" points="707.3122,-87.5001 717.3122,-84 707.3121,-80.5001 707.3122,-87.5001"/>
<text text-anchor="middle" x="672.7656" y="-89.2883" font-family="Times,serif" font-size="14.00" fill="#000000">ϵ</text>
</g>
<!-- 25 -->
<g id="node26" class="node">
<title>25</title>
<ellipse fill="none" stroke="#000000" cx="1371.5313" cy="-214" rx="27" ry="18"/>
<text text-anchor="middle" x="1371.5313" y="-209.8" font-family="Times,serif" font-size="14.00" fill="#000000">25</text>
</g>
<!-- 20&#45;&gt;25 -->
<g id="edge26" class="edge">
<title>20&#45;&gt;25</title>
<path fill="none" stroke="#000000" d="M1287.2819,-315.2209C1303.8352,-295.333 1332.4442,-260.9609 1351.6742,-237.8572"/>
<polygon fill="#000000" stroke="#000000" points="1354.5876,-239.8279 1358.2948,-229.9028 1349.2074,-235.3498 1354.5876,-239.8279"/>
<text text-anchor="middle" x="1322.8398" y="-281.2883" font-family="Times,serif" font-size="14.00" fill="#000000">ϵ</text>
</g>
<!-- 26 -->
<g id="node27" class="node">
<title>26</title>
<ellipse fill="none" stroke="#000000" cx="888.7656" cy="-304" rx="27" ry="18"/>
<text text-anchor="middle" x="888.7656" y="-299.8" font-family="Times,serif" font-size="14.00" fill="#000000">26</text>
</g>
<!-- 21&#45;&gt;26 -->
<g id="edge27" class="edge">
<title>21&#45;&gt;26</title>
<path fill="none" stroke="#000000" d="M771.8509,-304C794.2352,-304 826.2627,-304 851.1381,-304"/>
<polygon fill="#000000" stroke="#000000" points="851.3122,-307.5001 861.3122,-304 851.3121,-300.5001 851.3122,-307.5001"/>
<text text-anchor="middle" x="816.7656" y="-309.2883" font-family="Times,serif" font-size="14.00" fill="#000000">ϵ</text>
</g>
<!-- 27 -->
<g id="node28" class="node">
<title>27</title>
<ellipse fill="none" stroke="#000000" cx="960.7656" cy="-214" rx="27" ry="18"/>
<text text-anchor="middle" x="960.7656" y="-209.8" font-family="Times,serif" font-size="14.00" fill="#000000">27</text>
</g>
<!-- 22&#45;&gt;27 -->
<g id="edge28" class="edge">
<title>22&#45;&gt;27</title>
<path fill="none" stroke="#000000" d="M843.8509,-214.8119C866.2352,-214.6565 898.2627,-214.434 923.1381,-214.2613"/>
<polygon fill="#000000" stroke="#000000" points="923.3368,-217.7601 933.3122,-214.1906 923.2881,-210.7603 923.3368,-217.7601"/>
<text text-anchor="middle" x="888.7656" y="-219.2883" font-family="Times,serif" font-size="14.00" fill="#000000">ϵ</text>
</g>
<!-- 28 -->
<g id="node29" class="node">
<title>28</title>
<ellipse fill="none" stroke="#000000" cx="1371.5313" cy="-111" rx="27" ry="18"/>
<text text-anchor="middle" x="1371.5313" y="-106.8" font-family="Times,serif" font-size="14.00" fill="#000000">28</text>
</g>
<!-- 23&#45;&gt;28 -->
<g id="edge29" class="edge">
<title>23&#45;&gt;28</title>
<path fill="none" stroke="#000000" d="M1301.275,-111C1311.4254,-111 1323.1427,-111 1334.0633,-111"/>
<polygon fill="#000000" stroke="#000000" points="1334.2125,-114.5001 1344.2124,-111 1334.2124,-107.5001 1334.2125,-114.5001"/>
<text text-anchor="middle" x="1322.8398" y="-116.2883" font-family="Times,serif" font-size="14.00" fill="#000000">ϵ</text>
</g>
<!-- 29 -->
<g id="node30" class="node">
<title>29</title>
<ellipse fill="none" stroke="#000000" cx="888.7656" cy="-84" rx="27" ry="18"/>
<text text-anchor="middle" x="888.7656" y="-79.8" font-family="Times,serif" font-size="14.00" fill="#000000">29</text>
</g>
<!-- 24&#45;&gt;29 -->
<g id="edge30" class="edge">
<title>24&#45;&gt;29</title>
<path fill="none" stroke="#000000" d="M771.8509,-84C794.2352,-84 826.2627,-84 851.1381,-84"/>
<polygon fill="#000000" stroke="#000000" points="851.3122,-87.5001 861.3122,-84 851.3121,-80.5001 851.3122,-87.5001"/>
<text text-anchor="middle" x="816.7656" y="-86.8" font-family="Times,serif" font-size="14.00" fill="#000000">h</text>
</g>
<!-- 25&#45;&gt;11 -->
<g id="edge31" class="edge">
<title>25&#45;&gt;11</title>
<path fill="none" stroke="#000000" d="M1398.6498,-213.219C1443.7213,-211.7221 1536.8481,-207.7839 1615.1865,-199 1618.0374,-198.6803 1620.9751,-198.3086 1623.929,-197.9037"/>
<polygon fill="#000000" stroke="#000000" points="1624.5499,-201.3501 1633.9314,-196.4269 1623.5274,-194.4251 1624.5499,-201.3501"/>
<text text-anchor="middle" x="1514.1123" y="-212.2883" font-family="Times,serif" font-size="14.00" fill="#000000">ϵ</text>
</g>
<!-- 30 -->
<g id="node31" class="node">
<title>30</title>
<ellipse fill="none" stroke="#000000" cx="1032.7656" cy="-304" rx="27" ry="18"/>
<text text-anchor="middle" x="1032.7656" y="-299.8" font-family="Times,serif" font-size="14.00" fill="#000000">30</text>
</g>
<!-- 26&#45;&gt;30 -->
<g id="edge32" class="edge">
<title>26&#45;&gt;30</title>
<path fill="none" stroke="#000000" d="M915.8509,-304C938.2352,-304 970.2627,-304 995.1381,-304"/>
<polygon fill="#000000" stroke="#000000" points="995.3122,-307.5001 1005.3122,-304 995.3121,-300.5001 995.3122,-307.5001"/>
<text text-anchor="middle" x="960.7656" y="-306.8" font-family="Times,serif" font-size="14.00" fill="#000000">c</text>
</g>
<!-- 31 -->
<g id="node32" class="node">
<title>31</title>
<ellipse fill="none" stroke="#000000" cx="1104.7656" cy="-214" rx="27" ry="18"/>
<text text-anchor="middle" x="1104.7656" y="-209.8" font-family="Times,serif" font-size="14.00" fill="#000000">31</text>
</g>
<!-- 27&#45;&gt;31 -->
<g id="edge33" class="edge">
<title>27&#45;&gt;31</title>
<path fill="none" stroke="#000000" d="M987.8509,-214C1010.2352,-214 1042.2627,-214 1067.1381,-214"/>
<polygon fill="#000000" stroke="#000000" points="1067.3122,-217.5001 1077.3122,-214 1067.3121,-210.5001 1067.3122,-217.5001"/>
<text text-anchor="middle" x="1032.7656" y="-216.8" font-family="Times,serif" font-size="14.00" fill="#000000">f</text>
</g>
<!-- 32 -->
<g id="node33" class="node">
<title>32</title>
<ellipse fill="none" stroke="#000000" cx="1465.4209" cy="-111" rx="27" ry="18"/>
<text text-anchor="middle" x="1465.4209" y="-106.8" font-family="Times,serif" font-size="14.00" fill="#000000">32</text>
</g>
<!-- 28&#45;&gt;32 -->
<g id="edge34" class="edge">
<title>28&#45;&gt;32</title>
<path fill="none" stroke="#000000" d="M1398.688,-111C1407.9331,-111 1418.4314,-111 1428.3196,-111"/>
<polygon fill="#000000" stroke="#000000" points="1428.3252,-114.5001 1438.3252,-111 1428.3251,-107.5001 1428.3252,-114.5001"/>
<text text-anchor="middle" x="1418.4761" y="-113.8" font-family="Times,serif" font-size="14.00" fill="#000000">j</text>
</g>
<!-- 29&#45;&gt;12 -->
<g id="edge35" class="edge">
<title>29&#45;&gt;12</title>
<path fill="none" stroke="#000000" d="M915.3603,-87.4715C935.362,-90.2505 963.3969,-94.5037 987.7656,-99.5117 991.0038,-100.1772 994.359,-100.9242 997.7107,-101.7095"/>
<polygon fill="#000000" stroke="#000000" points="997.0893,-105.1607 1007.6346,-104.1373 998.7528,-98.3612 997.0893,-105.1607"/>
<text text-anchor="middle" x="960.7656" y="-105.2883" font-family="Times,serif" font-size="14.00" fill="#000000">ϵ</text>
</g>
<!-- 29&#45;&gt;13 -->
<g id="edge36" class="edge">
<title>29&#45;&gt;13</title>
<path fill="none" stroke="#000000" d="M863.9458,-76.5435C840.4555,-69.901 804.0771,-60.6799 771.7656,-57 684.3308,-47.0422 661.2004,-47.0422 573.7656,-57 545.6193,-60.2055 514.387,-67.6158 491.2758,-73.8636"/>
<polygon fill="#000000" stroke="#000000" points="490.2907,-70.5046 481.5855,-76.5435 492.1567,-77.2513 490.2907,-70.5046"/>
<text text-anchor="middle" x="672.7656" y="-56.2883" font-family="Times,serif" font-size="14.00" fill="#000000">ϵ</text>
</g>
<!-- 30&#45;&gt;15 -->
<g id="edge37" class="edge">
<title>30&#45;&gt;15</title>
<path fill="none" stroke="#000000" d="M1059.3603,-307.4715C1079.362,-310.2505 1107.3969,-314.5037 1131.7656,-319.5117 1135.0038,-320.1772 1138.359,-320.9242 1141.7107,-321.7095"/>
<polygon fill="#000000" stroke="#000000" points="1141.0893,-325.1607 1151.6346,-324.1373 1142.7528,-318.3612 1141.0893,-325.1607"/>
<text text-anchor="middle" x="1104.7656" y="-324.2883" font-family="Times,serif" font-size="14.00" fill="#000000">ϵ</text>
</g>
<!-- 30&#45;&gt;16 -->
<g id="edge38" class="edge">
<title>30&#45;&gt;16</title>
<path fill="none" stroke="#000000" d="M1007.9458,-296.5435C984.4555,-289.901 948.0771,-280.6799 915.7656,-277 828.3308,-267.0422 805.2004,-267.0422 717.7656,-277 689.6193,-280.2055 658.387,-287.6158 635.2758,-293.8636"/>
<polygon fill="#000000" stroke="#000000" points="634.2907,-290.5046 625.5855,-296.5435 636.1567,-297.2513 634.2907,-290.5046"/>
<text text-anchor="middle" x="816.7656" y="-275.2883" font-family="Times,serif" font-size="14.00" fill="#000000">ϵ</text>
</g>
<!-- 31&#45;&gt;25 -->
<g id="edge39" class="edge">
<title>31&#45;&gt;25</title>
<path fill="none" stroke="#000000" d="M1131.8126,-214C1179.7466,-214 1279.6733,-214 1334.1518,-214"/>
<polygon fill="#000000" stroke="#000000" points="1334.4127,-217.5001 1344.4127,-214 1334.4127,-210.5001 1334.4127,-217.5001"/>
<text text-anchor="middle" x="1225.457" y="-219.2883" font-family="Times,serif" font-size="14.00" fill="#000000">ϵ</text>
</g>
<!-- 32&#45;&gt;6 -->
<g id="edge40" class="edge">
<title>32&#45;&gt;6</title>
<path fill="none" stroke="#000000" d="M1487.6724,-121.484C1497.1111,-126.1297 1508.1414,-131.8244 1517.8037,-137.5117 1523.8142,-141.0495 1530.1048,-145.0857 1536.0128,-149.0376"/>
<polygon fill="#000000" stroke="#000000" points="1534.0838,-151.9584 1544.3179,-154.6995 1538.0268,-146.1746 1534.0838,-151.9584"/>
<text text-anchor="middle" x="1514.1123" y="-143.2883" font-family="Times,serif" font-size="14.00" fill="#000000">ϵ</text>
</g>
<!-- 32&#45;&gt;7 -->
<g id="edge41" class="edge">
<title>32&#45;&gt;7</title>
<path fill="none" stroke="#000000" d="M1459.6597,-93.1659C1448.2764,-61.7888 1419.7399,0 1371.5313,0 456.7656,0 456.7656,0 456.7656,0 403.1031,0 355.6605,-47.9044 330.9122,-78.3739"/>
<polygon fill="#000000" stroke="#000000" points="327.9875,-76.4305 324.5473,-86.4513 333.4857,-80.763 327.9875,-76.4305"/>
<text text-anchor="middle" x="960.7656" y="-5.2883" font-family="Times,serif" font-size="14.00" fill="#000000">ϵ</text>
</g>
</g>
</svg>
